<?xml version="1.0" encoding="utf-8"?>
<svg
	version="1.1"
	id="Capa_1"
	xmlns="http://www.w3.org/2000/svg"
	xmlns:xlink="http://www.w3.org/1999/xlink"
	x="0px"
	y="0px"
	viewBox="0 0 199.9 112"
	style="enable-background: new 0 0 199.9 112"
	xml:space="preserve"
>
	<g transform="translate(-0.045588,156.004838) scale(0.100000,-0.100000)">
		<path
			class="st0"
			d="M206,1544c-3-9-6-25-6-36c0-63-68-130-145-144c-22-4-43-12-47-18c-10-14-10-678,0-692c4-6,25-14,47-18c77-14,145-81,145-144c0-56-56-52,801-52h789l4.8,26.1c0.1,0.6,0.2,1.2,0.4,1.8c4,16,8.8,38.4,10.8,51.1c13,60,64,103,139,117c22,4,43,12,47,18s8,162,8,346s-4,340-8,346s-25,14-47,18c-77,14-145,81-145,144c0,56,56,52-800,52C291,1560,212,1558,206,1544zM1754,1453c25-60,82-117,137-135l44-15v-303V697l-44-15c-55-18-112-75-137-135l-19-47h-735H265l-19,47c-25,60-82,117-137,135l-44,15v303v303l44,15c55,18,113,76,136,136l18,46h736h736L1754,1453z"
		/>
		<path
			class="st0"
			d="M340,1334c-6-14-10-31-10-39c0-20-58-65-84-65c-43,0-46-13-46-230c0-218,3-230,46-230c33,0,76-42,89-86l2.7-9.5c4.9-17.5,20.9-29.5,39-29.5H1000h622.1c18.7,0,35,12.8,39.4,31l1.5,6c10,43,57,88,91,88c43,0,46,13,46,230s-3,230-46,230c-34,0-84,47-84,79c0,15-5,32-12,39c-9,9-169,12-660,12H377.9C361.1,1360,346,1349.7,340,1334L340,1334z M1615,1278c10-33,55-78,93-94l32-14v-170V830l-33-13c-36-16-97-80-97-102c0-13-81-15-609-15H392l-12,29c-14,36-56,76-92,90l-28,11v170v170l28,11c36,14,78,54,92,90l12,29h609h608L1615,1278z"
		/>
		<path
			class="st0"
			d="M444,1115c-15-39,1-45,119-45c90,0,117,3,127,15s10,18,0,30s-37,15-127,15C471,1130,448,1127,444,1115z"
		/>
		<path
			class="st0"
			d="M844,1115c-4-8-4-22,0-30c5-13,55-15,369-15c312,0,366,2,377,15c10,12,10,18,0,30c-11,13-65,15-377,15
		C899,1130,849,1128,844,1115z"
		/>
		<path
			class="st0"
			d="M444,915c-4-8-4-22,0-30c5-13,45-15,308-13l278,2.8c13.8,0.1,25,11.4,25,25.2l0,0v0c0,13.8-11.2,25.1-25,25.2L752,928C489,930,449,928,444,915z"
		/>
		<path
			class="st0"
			d="M1210,915c-10-12-10-18,0-30s44-15,190-15s180,3,190,15s10,18,0,30s-44,15-190,15S1220,927,1210,915z"
		/>
	</g>
</svg>
